<svg xmlns="http://www.w3.org/2000/svg" viewBox="0 0 512 512"><defs/><circle cx="250.7" cy="255.1" r="231.3" fill="#e6e6e6"/><path fill="#ff9f03" d="M137 381H57a231 231 0 00194 105l-6-3a255 255 0 01-108-102z"/><path fill="#ffcd01" d="M107 297H23a230 230 0 0034 84h80a255 255 0 01-30-84z"/><path fill="#8726e2" d="M104 255a255 255 0 013-42H23a233 233 0 000 84h84a255 255 0 01-3-42z"/><path fill="#3bdabe" d="M365 129h80A231 231 0 00251 24l6 3a255 255 0 01108 102zm-228 0H57a230 230 0 00-34 84h84a255 255 0 0130-84z"/><path fill="#ff2b63" d="M245 27l6-3A231 231 0 0057 129h80A255 255 0 01245 27z"/><path fill="#ff9f03" d="M394 213h84a230 230 0 00-33-84h-80a255 255 0 0129 84z"/><path fill="#48bdff" d="M478 213h-84a255 255 0 010 84h84a233 233 0 000-84z"/><path fill="#ff2b63" d="M257 483l-6 3a231 231 0 00194-105h-81a255 255 0 01-107 102z"/><path fill="#e6e6e6" d="M365 381h80a230 230 0 0033-84h-84a255 255 0 01-29 84zm-77-252a534 534 0 0114 84h92a255 255 0 00-30-84z"/><path fill="#48bdff" d="M288 129h76A255 255 0 00258 27l-6-3 5 10a534 534 0 0132 95z"/><path fill="#8726e2" d="M365 381h-77a534 534 0 01-33 95l-4 10 6-3a255 255 0 00107-102z"/><path fill="#ff2b63" d="M303 255l-1 42h92a255 255 0 000-84h-92l1 42z"/><path fill="#ff9f03" d="M288 381h76a255 255 0 0031-84h-93a534 534 0 01-14 84z"/><path fill="#ff2b63" d="M213 129h-76a255 255 0 00-30 84h93a534 534 0 0113-84z"/><path fill="#3bdabe" d="M213 381h-76a255 255 0 00108 102l6 3-5-10a534 534 0 01-33-95z"/><path fill="#ff9f03" d="M198 255l2-42h-93a255 255 0 000 84h93l-2-42z"/><path fill="#e6e6e6" d="M107 297a255 255 0 0030 84h76a534 534 0 01-13-84z"/><path fill="#ffcd01" d="M137 129h76a534 534 0 0133-95l5-10-6 3a255 255 0 00-108 102zm165 84a534 534 0 00-14-84h-75a534 534 0 00-13 84z"/><path fill="#8726e2" d="M213 129h75a534 534 0 00-32-95l-5-10-5 10a534 534 0 00-33 95z"/><path fill="#3bdabe" d="M198 255l2 42h102l1-42-1-42H200l-2 42z"/><path fill="#48bdff" d="M288 381h-75a534 534 0 0033 95l5 10 4-10a534 534 0 0033-95z"/><path fill="#8726e2" d="M200 297a534 534 0 0013 84h75a534 534 0 0014-84z"/><path fill="#38c1a7" d="M209 276h-10l1 21h102l1-42v-17a136 136 0 01-94 38z"/><path fill="#d3d3d3" d="M301 204l1 9h92a255 255 0 00-17-60 174 174 0 01-76 51zm77 156h-3l-10 21h80a230 230 0 0029-66 125 125 0 01-96 45z"/></svg>